<?xml version="1.0" encoding="UTF-8" standalone="no"?>
<!-- Generator: Adobe Illustrator 12.0.1, SVG Export Plug-In . SVG Version: 6.00 Build 51448)  -->

<svg
   xmlns:dc="http://purl.org/dc/elements/1.1/"
   xmlns:cc="http://creativecommons.org/ns#"
   xmlns:rdf="http://www.w3.org/1999/02/22-rdf-syntax-ns#"
   xmlns:svg="http://www.w3.org/2000/svg"
   xmlns="http://www.w3.org/2000/svg"
   xmlns:sodipodi="http://sodipodi.sourceforge.net/DTD/sodipodi-0.dtd"
   xmlns:inkscape="http://www.inkscape.org/namespaces/inkscape"
   version="1.1"
   id="レイヤー_2"
   width="514.896"
   height="113.24374"
   viewBox="0 0 482.715 106.166"
   overflow="visible"
   enable-background="new 0 0 482.715 106.166"
   xml:space="preserve"
   inkscape:version="0.92.1 r15371"
   sodipodi:docname="logo-icon-horizontal.svg"
   style="overflow:visible"><metadata
     id="metadata4596"><rdf:RDF><cc:Work
         rdf:about=""><dc:format>image/svg+xml</dc:format><dc:type
           rdf:resource="http://purl.org/dc/dcmitype/StillImage" /><dc:title /></cc:Work></rdf:RDF></metadata><defs
     id="defs4594" /><sodipodi:namedview
     pagecolor="#ffffff"
     bordercolor="#666666"
     borderopacity="1"
     objecttolerance="10"
     gridtolerance="10"
     guidetolerance="10"
     inkscape:pageopacity="0"
     inkscape:pageshadow="2"
     inkscape:window-width="990"
     inkscape:window-height="480"
     id="namedview4592"
     showgrid="false"
     inkscape:zoom="1.7152979"
     inkscape:cx="241.3575"
     inkscape:cy="53.083"
     inkscape:window-x="228"
     inkscape:window-y="251"
     inkscape:window-maximized="0"
     inkscape:current-layer="レイヤー_2" /><g
     id="g4233"><g
       id="g4235"><path
         d="M 16.811,89.474 45.221,99.32 46.043,97.216 14.332,86.23 c 0.78,1.113 1.606,2.195 2.479,3.244 z"
         id="path4237"
         inkscape:connector-curvature="0"
         style="fill:#ffffff" /><path
         d="m 12.434,83.304 34.39,11.914 0.822,-2.102 -36.858,-12.771 c 0.515,1.004 1.065,1.99 1.646,2.959 z"
         id="path4239"
         inkscape:connector-curvature="0"
         style="fill:#ffffff" /><path
         d="m 12.343,32.06 16.31,5.651 c 0.484,-0.641 0.985,-1.266 1.511,-1.864 L 13.577,30.1 c -0.426,0.641 -0.836,1.296 -1.234,1.96 z"
         id="path4241"
         inkscape:connector-curvature="0"
         style="fill:#ffffff" /><path
         d="m 5.488,52.962 16.497,5.717 c -0.026,-0.791 -0.018,-1.586 0.014,-2.383 L 5.757,50.668 c -0.108,0.765 -0.198,1.53 -0.269,2.294 z"
         id="path4243"
         inkscape:connector-curvature="0"
         style="fill:#ffffff" /><path
         d="m 9.483,77.626 38.944,13.493 0.2,-0.512 -5.658,-2.213 C 40.209,87.316 37.681,85.9 35.402,84.218 L 8.371,74.852 c 0.346,0.936 0.712,1.862 1.112,2.774 z"
         id="path4245"
         inkscape:connector-curvature="0"
         style="fill:#ffffff" /><path
         d="M 7.501,72.283 31.156,80.48 C 30.143,79.418 29.207,78.295 28.35,77.119 L 6.763,69.639 c 0.223,0.888 0.468,1.77 0.738,2.644 z"
         id="path4247"
         inkscape:connector-curvature="0"
         style="fill:#ffffff" /><path
         d="m 25.141,17.872 22.114,7.662 c 1.52,-0.37 3.069,-0.63 4.637,-0.78 L 27.416,16.272 c -0.772,0.513 -1.531,1.043 -2.275,1.6 z"
         id="path4249"
         inkscape:connector-curvature="0"
         style="fill:#ffffff" /><path
         d="m 5.496,62.277 18.387,6.37 c -0.312,-0.879 -0.589,-1.77 -0.827,-2.674 L 5.322,59.829 c 0.038,0.817 0.096,1.635 0.174,2.448 z"
         id="path4251"
         inkscape:connector-curvature="0"
         style="fill:#ffffff" /><path
         d="m 6.213,67.182 20.229,7.009 C 25.896,73.247 25.395,72.276 24.945,71.285 L 5.779,64.643 c 0.122,0.851 0.267,1.696 0.434,2.539 z"
         id="path4253"
         inkscape:connector-curvature="0"
         style="fill:#ffffff" /><path
         d="m 5.272,57.543 17.234,5.972 C 22.355,62.686 22.239,61.847 22.151,61.004 L 5.33,55.175 c -0.038,0.792 -0.058,1.581 -0.058,2.368 z"
         id="path4255"
         inkscape:connector-curvature="0"
         style="fill:#ffffff" /><path
         d="m 8.674,39.516 c -0.068,0.172 -0.123,0.347 -0.188,0.519 l 15.786,5.471 c 0.279,-0.708 0.586,-1.396 0.909,-2.073 L 9.336,37.943 c -0.225,0.521 -0.453,1.038 -0.662,1.573 z"
         id="path4257"
         inkscape:connector-curvature="0"
         style="fill:#ffffff" /><path
         d="m 14.847,28.272 16.938,5.868 c 0.611,-0.602 1.236,-1.185 1.888,-1.733 L 16.296,26.386 c -0.498,0.616 -0.98,1.244 -1.449,1.886 z"
         id="path4259"
         inkscape:connector-curvature="0"
         style="fill:#ffffff" /><path
         d="m 10.23,35.984 15.942,5.522 c 0.377,-0.675 0.77,-1.335 1.189,-1.976 L 11.266,33.953 c -0.358,0.668 -0.703,1.344 -1.036,2.031 z"
         id="path4261"
         inkscape:connector-curvature="0"
         style="fill:#ffffff" /><path
         d="m 7.103,44.211 15.836,5.487 c 0.18,-0.728 0.383,-1.452 0.615,-2.175 L 7.763,42.052 c -0.238,0.717 -0.457,1.437 -0.66,2.159 z"
         id="path4263"
         inkscape:connector-curvature="0"
         style="fill:#ffffff" /><path
         d="m 17.778,24.632 17.92,6.209 c 0.773,-0.555 1.568,-1.076 2.384,-1.563 L 19.464,22.829 c -0.575,0.585 -1.138,1.186 -1.686,1.803 z"
         id="path4265"
         inkscape:connector-curvature="0"
         style="fill:#ffffff" /><path
         d="m 6.107,48.521 16.053,5.562 c 0.082,-0.759 0.187,-1.517 0.323,-2.275 L 6.573,46.296 c -0.174,0.74 -0.328,1.483 -0.466,2.225 z"
         id="path4267"
         inkscape:connector-curvature="0"
         style="fill:#ffffff" /><path
         d="m 21.186,21.156 19.459,6.742 c 1.014,-0.489 2.053,-0.924 3.112,-1.308 L 23.142,19.446 c -0.664,0.555 -1.318,1.122 -1.956,1.71 z"
         id="path4269"
         inkscape:connector-curvature="0"
         style="fill:#ffffff" /><path
         d="m 36.887,103.953 5.658,2.213 0.292,-0.75 -11.166,-3.867 c 1.674,0.886 3.409,1.697 5.216,2.404 z"
         id="path4271"
         inkscape:connector-curvature="0"
         style="fill:#ffffff" /><path
         d="m 24.22,96.699 19.397,6.721 0.822,-2.104 -24.601,-8.523 c 1.376,1.378 2.835,2.685 4.382,3.906 z"
         id="path4273"
         inkscape:connector-curvature="0"
         style="fill:#ffffff" /><path
         d="m 50.663,8.092 26.621,9.224 0.822,-2.103 -20.98,-7.27 C 54.958,7.853 52.8,7.902 50.663,8.092 Z"
         id="path4275"
         inkscape:connector-curvature="0"
         style="fill:#ffffff" /><path
         d="M 35.175,12.037 74.077,25.516 74.899,23.414 38.416,10.772 c -1.094,0.388 -2.177,0.802 -3.241,1.265 z"
         id="path4277"
         inkscape:connector-curvature="0"
         style="fill:#ffffff" /><path
         d="M 41.822,9.685 75.68,21.416 76.502,19.313 45.975,8.735 c -1.399,0.261 -2.786,0.571 -4.153,0.95 z"
         id="path4279"
         inkscape:connector-curvature="0"
         style="fill:#ffffff" /><path
         d="m 29.75,14.813 28.788,9.975 c 2.847,0.306 5.699,0.982 8.49,2.074 l 5.658,2.213 0.61,-1.561 -40.884,-14.165 c -0.902,0.459 -1.788,0.95 -2.662,1.464 z"
         id="path4281"
         inkscape:connector-curvature="0"
         style="fill:#ffffff" /></g><g
       id="g4283"><g
         id="g4285"><linearGradient
           id="XMLID_44_"
           gradientUnits="userSpaceOnUse"
           x1="67.947304"
           y1="71.599602"
           x2="67.947304"
           y2="132.29871"><stop
             offset="0"
             style="stop-color:#458CFF"
             id="stop4288" /><stop
             offset="1"
             style="stop-color:#FFFFFF"
             id="stop4290" /></linearGradient><path
           d="M 73.112,11.303 C 67.86,9.249 62.468,8.168 57.125,7.943 l 20.98,7.27 0.665,-1.698 z"
           id="path4292"
           inkscape:connector-curvature="0"
           style="fill:url(#XMLID_44_)" /><linearGradient
           id="XMLID_45_"
           gradientUnits="userSpaceOnUse"
           x1="61.628899"
           y1="71.599602"
           x2="61.628899"
           y2="132.2988"><stop
             offset="0"
             style="stop-color:#458CFF"
             id="stop4295" /><stop
             offset="1"
             style="stop-color:#FFFFFF"
             id="stop4297" /></linearGradient><path
           d="m 45.975,8.735 30.527,10.578 0.781,-1.998 -26.62,-9.223 c -1.576,0.14 -3.14,0.355 -4.688,0.643 z"
           id="path4299"
           inkscape:connector-curvature="0"
           style="fill:url(#XMLID_45_)" /><linearGradient
           id="XMLID_46_"
           gradientUnits="userSpaceOnUse"
           x1="57.047901"
           y1="71.598602"
           x2="57.047798"
           y2="132.2981"><stop
             offset="0"
             style="stop-color:#458CFF"
             id="stop4302" /><stop
             offset="1"
             style="stop-color:#FFFFFF"
             id="stop4304" /></linearGradient><path
           d="M 38.416,10.772 74.899,23.414 75.68,21.416 41.822,9.685 c -1.151,0.318 -2.283,0.689 -3.406,1.087 z"
           id="path4306"
           inkscape:connector-curvature="0"
           style="fill:url(#XMLID_46_)" /><linearGradient
           id="XMLID_47_"
           gradientUnits="userSpaceOnUse"
           x1="53.244598"
           y1="71.600601"
           x2="53.244598"
           y2="132.2997"><stop
             offset="0"
             style="stop-color:#458CFF"
             id="stop4309" /><stop
             offset="1"
             style="stop-color:#FFFFFF"
             id="stop4311" /></linearGradient><path
           d="M 32.412,13.349 73.296,27.514 74.077,25.516 35.175,12.037 c -0.934,0.407 -1.854,0.848 -2.763,1.312 z"
           id="path4313"
           inkscape:connector-curvature="0"
           style="fill:url(#XMLID_47_)" /><linearGradient
           id="XMLID_48_"
           gradientUnits="userSpaceOnUse"
           x1="42.9771"
           y1="71.599602"
           x2="42.977001"
           y2="132.2991"><stop
             offset="0"
             style="stop-color:#458CFF"
             id="stop4316" /><stop
             offset="1"
             style="stop-color:#FFFFFF"
             id="stop4318" /></linearGradient><path
           d="m 27.416,16.271 24.476,8.482 c 2.19,-0.213 4.417,-0.206 6.646,0.033 L 29.75,14.813 c -0.792,0.465 -1.569,0.951 -2.334,1.458 z"
           id="path4320"
           inkscape:connector-curvature="0"
           style="fill:url(#XMLID_48_)" /><linearGradient
           id="XMLID_49_"
           gradientUnits="userSpaceOnUse"
           x1="35.1987"
           y1="71.599602"
           x2="35.1987"
           y2="132.29871"><stop
             offset="0"
             style="stop-color:#458CFF"
             id="stop4323" /><stop
             offset="1"
             style="stop-color:#FFFFFF"
             id="stop4325" /></linearGradient><path
           d="m 23.142,19.447 20.615,7.144 c 1.145,-0.416 2.313,-0.77 3.498,-1.057 L 25.141,17.872 c -0.678,0.509 -1.346,1.031 -1.999,1.575 z"
           id="path4327"
           inkscape:connector-curvature="0"
           style="fill:url(#XMLID_49_)" /><linearGradient
           id="XMLID_50_"
           gradientUnits="userSpaceOnUse"
           x1="30.054701"
           y1="71.599602"
           x2="30.054701"
           y2="132.2991"><stop
             offset="0"
             style="stop-color:#458CFF"
             id="stop4330" /><stop
             offset="1"
             style="stop-color:#FFFFFF"
             id="stop4332" /></linearGradient><path
           d="m 19.464,22.829 18.618,6.449 c 0.834,-0.497 1.689,-0.958 2.563,-1.38 L 21.186,21.156 c -0.586,0.543 -1.16,1.101 -1.722,1.673 z"
           id="path4334"
           inkscape:connector-curvature="0"
           style="fill:url(#XMLID_50_)" /><linearGradient
           id="XMLID_51_"
           gradientUnits="userSpaceOnUse"
           x1="25.996599"
           y1="71.599602"
           x2="25.996599"
           y2="132.299"><stop
             offset="0"
             style="stop-color:#458CFF"
             id="stop4337" /><stop
             offset="1"
             style="stop-color:#FFFFFF"
             id="stop4339" /></linearGradient><path
           d="m 16.295,26.386 17.377,6.021 c 0.654,-0.552 1.334,-1.069 2.026,-1.566 l -17.92,-6.209 c -0.507,0.571 -1,1.158 -1.483,1.754 z"
           id="path4341"
           inkscape:connector-curvature="0"
           style="fill:url(#XMLID_51_)" /><linearGradient
           id="XMLID_52_"
           gradientUnits="userSpaceOnUse"
           x1="22.6807"
           y1="71.599602"
           x2="22.6807"
           y2="132.2986"><stop
             offset="0"
             style="stop-color:#458CFF"
             id="stop4344" /><stop
             offset="1"
             style="stop-color:#FFFFFF"
             id="stop4346" /></linearGradient><path
           d="m 13.577,30.1 16.586,5.747 c 0.52,-0.592 1.063,-1.156 1.621,-1.706 L 14.846,28.273 C 14.41,28.868 13.988,29.48 13.577,30.1 Z"
           id="path4348"
           inkscape:connector-curvature="0"
           style="fill:url(#XMLID_52_)" /><linearGradient
           id="XMLID_53_"
           gradientUnits="userSpaceOnUse"
           x1="19.959499"
           y1="71.599602"
           x2="19.959499"
           y2="132.2988"><stop
             offset="0"
             style="stop-color:#458CFF"
             id="stop4351" /><stop
             offset="1"
             style="stop-color:#FFFFFF"
             id="stop4353" /></linearGradient><path
           d="m 11.267,33.954 16.095,5.577 c 0.409,-0.626 0.843,-1.229 1.291,-1.82 L 12.343,32.06 c -0.372,0.621 -0.729,1.253 -1.076,1.894 z"
           id="path4355"
           inkscape:connector-curvature="0"
           style="fill:url(#XMLID_53_)" /><linearGradient
           id="XMLID_54_"
           gradientUnits="userSpaceOnUse"
           x1="17.753901"
           y1="71.599602"
           x2="17.753901"
           y2="132.29849"><stop
             offset="0"
             style="stop-color:#458CFF"
             id="stop4358" /><stop
             offset="1"
             style="stop-color:#FFFFFF"
             id="stop4360" /></linearGradient><path
           d="m 9.335,37.941 15.845,5.49 c 0.312,-0.656 0.642,-1.299 0.992,-1.925 L 10.23,35.984 c -0.31,0.644 -0.609,1.294 -0.895,1.957 z"
           id="path4362"
           inkscape:connector-curvature="0"
           style="fill:url(#XMLID_54_)" /><linearGradient
           id="XMLID_55_"
           gradientUnits="userSpaceOnUse"
           x1="16.017599"
           y1="71.599602"
           x2="16.017599"
           y2="132.2986"><stop
             offset="0"
             style="stop-color:#458CFF"
             id="stop4365" /><stop
             offset="1"
             style="stop-color:#FFFFFF"
             id="stop4367" /></linearGradient><path
           d="m 7.763,42.052 15.791,5.472 c 0.208,-0.643 0.429,-1.285 0.678,-1.924 0.013,-0.033 0.027,-0.063 0.04,-0.095 L 8.486,40.034 c -0.254,0.672 -0.5,1.343 -0.723,2.018 z"
           id="path4369"
           inkscape:connector-curvature="0"
           style="fill:url(#XMLID_55_)" /><linearGradient
           id="XMLID_56_"
           gradientUnits="userSpaceOnUse"
           x1="14.7559"
           y1="71.599602"
           x2="14.7559"
           y2="132.2986"><stop
             offset="0"
             style="stop-color:#458CFF"
             id="stop4372" /><stop
             offset="1"
             style="stop-color:#FFFFFF"
             id="stop4374" /></linearGradient><path
           d="m 6.573,46.296 15.91,5.512 c 0.126,-0.705 0.281,-1.407 0.456,-2.109 L 7.103,44.211 C 6.909,44.904 6.736,45.6 6.573,46.296 Z"
           id="path4376"
           inkscape:connector-curvature="0"
           style="fill:url(#XMLID_56_)" /><linearGradient
           id="XMLID_57_"
           gradientUnits="userSpaceOnUse"
           x1="13.9585"
           y1="71.599602"
           x2="13.9585"
           y2="132.2991"><stop
             offset="0"
             style="stop-color:#458CFF"
             id="stop4379" /><stop
             offset="1"
             style="stop-color:#FFFFFF"
             id="stop4381" /></linearGradient><path
           d="m 5.757,50.668 16.241,5.628 c 0.029,-0.736 0.081,-1.474 0.161,-2.213 L 6.107,48.521 c -0.134,0.715 -0.249,1.431 -0.35,2.147 z"
           id="path4383"
           inkscape:connector-curvature="0"
           style="fill:url(#XMLID_57_)" /><linearGradient
           id="XMLID_58_"
           gradientUnits="userSpaceOnUse"
           x1="13.7407"
           y1="71.599602"
           x2="13.7407"
           y2="132.299"><stop
             offset="0"
             style="stop-color:#458CFF"
             id="stop4386" /><stop
             offset="1"
             style="stop-color:#FFFFFF"
             id="stop4388" /></linearGradient><path
           d="m 5.33,55.175 16.821,5.829 C 22.07,60.233 22.011,59.458 21.984,58.679 L 5.488,52.962 c -0.07,0.739 -0.122,1.476 -0.158,2.213 z"
           id="path4390"
           inkscape:connector-curvature="0"
           style="fill:url(#XMLID_58_)" /><linearGradient
           id="XMLID_59_"
           gradientUnits="userSpaceOnUse"
           x1="14.1636"
           y1="71.599602"
           x2="14.1636"
           y2="132.29871"><stop
             offset="0"
             style="stop-color:#458CFF"
             id="stop4393" /><stop
             offset="1"
             style="stop-color:#FFFFFF"
             id="stop4395" /></linearGradient><path
           d="m 5.322,59.829 17.733,6.145 C 22.843,65.162 22.657,64.343 22.506,63.515 L 5.272,57.543 c -0.001,0.764 0.015,1.525 0.05,2.286 z"
           id="path4397"
           inkscape:connector-curvature="0"
           style="fill:url(#XMLID_59_)" /><linearGradient
           id="XMLID_60_"
           gradientUnits="userSpaceOnUse"
           x1="15.2202"
           y1="71.599602"
           x2="15.2202"
           y2="132.29849"><stop
             offset="0"
             style="stop-color:#458CFF"
             id="stop4400" /><stop
             offset="1"
             style="stop-color:#FFFFFF"
             id="stop4402" /></linearGradient><path
           d="m 5.779,64.643 19.166,6.642 C 24.553,70.422 24.2,69.541 23.883,68.648 L 5.496,62.278 c 0.075,0.79 0.17,1.579 0.283,2.365 z"
           id="path4404"
           inkscape:connector-curvature="0"
           style="fill:url(#XMLID_60_)" /><linearGradient
           id="XMLID_61_"
           gradientUnits="userSpaceOnUse"
           x1="17.2817"
           y1="71.599602"
           x2="17.2817"
           y2="132.2988"><stop
             offset="0"
             style="stop-color:#458CFF"
             id="stop4407" /><stop
             offset="1"
             style="stop-color:#FFFFFF"
             id="stop4409" /></linearGradient><path
           d="m 6.763,69.639 21.587,7.48 C 27.662,76.176 27.024,75.198 26.441,74.19 L 6.213,67.182 c 0.163,0.825 0.346,1.643 0.55,2.457 z"
           id="path4411"
           inkscape:connector-curvature="0"
           style="fill:url(#XMLID_61_)" /><linearGradient
           id="XMLID_62_"
           gradientUnits="userSpaceOnUse"
           x1="21.452101"
           y1="71.599602"
           x2="21.452101"
           y2="132.2988"><stop
             offset="0"
             style="stop-color:#458CFF"
             id="stop4414" /><stop
             offset="1"
             style="stop-color:#FFFFFF"
             id="stop4416" /></linearGradient><path
           d="m 8.371,74.852 27.032,9.367 C 33.869,83.088 32.452,81.834 31.157,80.481 L 7.501,72.283 c 0.268,0.864 0.556,1.722 0.87,2.569 z"
           id="path4418"
           inkscape:connector-curvature="0"
           style="fill:url(#XMLID_62_)" /><linearGradient
           id="XMLID_63_"
           gradientUnits="userSpaceOnUse"
           x1="28.955601"
           y1="71.599602"
           x2="28.955601"
           y2="132.2988"><stop
             offset="0"
             style="stop-color:#458CFF"
             id="stop4421" /><stop
             offset="1"
             style="stop-color:#FFFFFF"
             id="stop4423" /></linearGradient><path
           d="M 10.788,80.345 47.647,93.116 48.428,91.118 9.483,77.626 c 0.405,0.921 0.846,1.824 1.305,2.719 z"
           id="path4425"
           inkscape:connector-curvature="0"
           style="fill:url(#XMLID_63_)" /><linearGradient
           id="XMLID_64_"
           gradientUnits="userSpaceOnUse"
           x1="29.6294"
           y1="71.599602"
           x2="29.6294"
           y2="132.2982"><stop
             offset="0"
             style="stop-color:#458CFF"
             id="stop4428" /><stop
             offset="1"
             style="stop-color:#FFFFFF"
             id="stop4430" /></linearGradient><path
           d="m 14.332,86.23 31.711,10.986 0.782,-1.998 -34.39,-11.914 c 0.598,0.994 1.229,1.971 1.897,2.926 z"
           id="path4432"
           inkscape:connector-curvature="0"
           style="fill:url(#XMLID_64_)" /><linearGradient
           id="XMLID_65_"
           gradientUnits="userSpaceOnUse"
           x1="31.0161"
           y1="71.599602"
           x2="31.0161"
           y2="132.29919"><stop
             offset="0"
             style="stop-color:#458CFF"
             id="stop4435" /><stop
             offset="1"
             style="stop-color:#FFFFFF"
             id="stop4437" /></linearGradient><path
           d="m 19.839,92.792 24.601,8.523 0.781,-1.996 -28.41,-9.846 c 0.954,1.152 1.966,2.257 3.028,3.319 z"
           id="path4439"
           inkscape:connector-curvature="0"
           style="fill:url(#XMLID_65_)" /><linearGradient
           id="XMLID_66_"
           gradientUnits="userSpaceOnUse"
           x1="33.9189"
           y1="71.599602"
           x2="33.9189"
           y2="132.2988"><stop
             offset="0"
             style="stop-color:#458CFF"
             id="stop4442" /><stop
             offset="1"
             style="stop-color:#FFFFFF"
             id="stop4444" /></linearGradient><path
           d="m 31.671,101.548 11.166,3.867 0.781,-1.996 -19.398,-6.72 c 2.302,1.814 4.792,3.439 7.451,4.849 z"
           id="path4446"
           inkscape:connector-curvature="0"
           style="fill:url(#XMLID_66_)" /></g><linearGradient
         id="XMLID_67_"
         gradientUnits="userSpaceOnUse"
         x1="36.756302"
         y1="71.596703"
         x2="36.756302"
         y2="132.29401"><stop
           offset="0"
           style="stop-color:#458CFF"
           id="stop4449" /><stop
           offset="1"
           style="stop-color:#FFFFFF"
           id="stop4451" /></linearGradient><path
         d="m 3.417,31.629 v 0 C -6.571,57.173 6.085,86.08 31.63,96.068 L 37.287,98.279 43.37,82.72 37.712,80.509 C 20.748,73.875 12.342,54.677 18.975,37.713 25.608,20.749 44.806,12.343 61.77,18.977 L 67.428,21.188 73.512,5.629 67.854,3.417 C 42.31,-6.57 13.404,6.085 3.417,31.629 Z"
         id="path4453"
         inkscape:connector-curvature="0"
         style="fill:url(#XMLID_67_)" /></g><g
       id="g4455"><linearGradient
         id="XMLID_68_"
         gradientUnits="userSpaceOnUse"
         x1="268.60641"
         y1="71.598602"
         x2="268.60641"
         y2="132.297"><stop
           offset="0"
           style="stop-color:#458CFF"
           id="stop4458" /><stop
           offset="1"
           style="stop-color:#FFFFFF"
           id="stop4460" /></linearGradient><path
         d="m 264.236,67.276 c -0.168,-3.205 0.662,-6.361 2.492,-9.469 1.828,-3.107 5.662,-4.773 11.498,-4.996 v -5.25 c -4.145,0.057 -7.289,0.893 -9.43,2.508 -2.143,1.615 -3.787,3.773 -4.936,6.473 v -7.855 h -4.875 v 44.125 h 5.25 V 67.276 Z"
         id="path4462"
         inkscape:connector-curvature="0"
         style="fill:url(#XMLID_68_)" /><linearGradient
         id="XMLID_69_"
         gradientUnits="userSpaceOnUse"
         x1="231.3774"
         y1="71.597702"
         x2="231.3774"
         y2="132.2979"><stop
           offset="0"
           style="stop-color:#458CFF"
           id="stop4465" /><stop
           offset="1"
           style="stop-color:#FFFFFF"
           id="stop4467" /></linearGradient><path
         d="m 241.611,63.753 c -0.07,0.672 -0.242,1.188 -0.52,1.551 -1.15,0.84 -3.303,1.391 -6.459,1.656 -3.156,0.265 -6.563,0.699 -10.223,1.301 -3.66,0.602 -6.809,1.859 -9.445,3.773 -2.637,1.916 -4.012,4.957 -4.123,9.122 0.027,3.66 1.287,6.678 3.779,9.053 2.492,2.375 6.076,3.615 10.752,3.729 4.389,-0.168 7.918,-1.063 10.588,-2.682 2.668,-1.619 4.688,-3.211 6.059,-4.775 -0.168,2.195 0.285,3.854 1.361,4.979 1.076,1.125 2.719,1.701 4.928,1.729 1.033,-0.057 1.844,-0.141 2.432,-0.25 0.586,-0.111 0.979,-0.166 1.174,-0.166 v -3.709 c -0.225,0 -0.49,0.021 -0.797,0.063 -0.309,0.043 -0.588,0.063 -0.838,0.063 -1.326,-0.027 -2.217,-0.246 -2.672,-0.656 -0.457,-0.41 -0.67,-0.883 -0.641,-1.422 V 59.603 c 0.027,-3.232 -1.27,-6.02 -3.891,-8.361 -2.621,-2.34 -6.775,-3.566 -12.463,-3.68 -6.094,0.168 -10.543,1.693 -13.352,4.58 -2.809,2.887 -4.197,6.127 -4.17,9.725 h 5 c 0.082,-2.602 1.074,-4.865 2.973,-6.791 1.899,-1.926 5.166,-2.93 9.801,-3.014 5.592,0.277 8.869,1.607 9.83,3.986 0.961,2.381 1.301,4.082 1.021,5.105 0.002,1.063 -0.033,1.93 -0.104,2.6 z m 0.106,13.627 c -0.168,3.727 -1.793,6.661 -4.875,8.801 -3.082,2.143 -6.682,3.229 -10.799,3.256 -3.359,-0.084 -5.859,-0.918 -7.496,-2.502 -1.637,-1.582 -2.455,-3.467 -2.455,-5.654 0.055,-2.766 0.986,-4.807 2.793,-6.122 1.807,-1.315 4.076,-2.23 6.807,-2.748 2.73,-0.516 5.537,-0.928 8.422,-1.236 2.883,-0.307 5.418,-0.781 7.604,-1.426 v 7.631 z"
         id="path4469"
         inkscape:connector-curvature="0"
         style="fill:url(#XMLID_69_)" /><linearGradient
         id="XMLID_70_"
         gradientUnits="userSpaceOnUse"
         x1="114.6572"
         y1="71.597702"
         x2="114.6572"
         y2="132.2999"><stop
           offset="0"
           style="stop-color:#458CFF"
           id="stop4472" /><stop
           offset="1"
           style="stop-color:#FFFFFF"
           id="stop4474" /></linearGradient><path
         d="m 116.295,94.437 c 8.059,-0.309 14.08,-2.654 18.068,-7.041 3.988,-4.387 5.982,-9.235 5.982,-14.543 h -5.5 c -0.057,4.674 -1.707,8.614 -4.953,11.819 -3.246,3.205 -7.695,4.877 -13.348,5.016 -8.226,-0.363 -13.957,-3.355 -17.187,-8.979 -3.232,-5.624 -4.777,-11.764 -4.637,-18.422 0.055,-8.557 1.924,-15.254 5.604,-20.092 3.68,-4.838 8.932,-7.299 15.759,-7.383 6.338,0.254 10.953,1.969 13.844,5.148 2.891,3.179 4.32,6.34 4.293,9.477 h 5.625 c 0.027,-4.51 -1.855,-8.838 -5.646,-12.984 -3.793,-4.146 -9.732,-6.359 -17.82,-6.641 -8.548,0.084 -15.232,2.959 -20.052,8.623 -4.82,5.664 -7.271,13.531 -7.355,23.6 -0.086,8.748 2.023,16.252 6.326,22.51 4.3,6.259 11.3,9.556 20.997,9.892 z"
         id="path4476"
         inkscape:connector-curvature="0"
         style="fill:url(#XMLID_70_)" /><linearGradient
         id="XMLID_71_"
         gradientUnits="userSpaceOnUse"
         x1="153.12399"
         y1="71.600601"
         x2="153.12399"
         y2="132.2993"><stop
           offset="0"
           style="stop-color:#458CFF"
           id="stop4479" /><stop
           offset="1"
           style="stop-color:#FFFFFF"
           id="stop4481" /></linearGradient><rect
         x="150.62399"
         y="31.562"
         width="5"
         height="61.25"
         id="rect4483"
         style="fill:url(#XMLID_71_)" /><linearGradient
         id="XMLID_72_"
         gradientUnits="userSpaceOnUse"
         x1="184.6812"
         y1="71.597702"
         x2="184.6812"
         y2="132.2979"><stop
           offset="0"
           style="stop-color:#458CFF"
           id="stop4486" /><stop
           offset="1"
           style="stop-color:#FFFFFF"
           id="stop4488" /></linearGradient><path
         d="m 184.93,93.937 c 6.076,-0.281 10.648,-1.998 13.715,-5.154 3.067,-3.156 4.6,-6.301 4.6,-9.43 h -5.125 c -0.029,2.446 -1.174,4.745 -3.436,6.897 -2.262,2.152 -5.373,3.299 -9.334,3.438 -5.107,-0.168 -8.846,-2.002 -11.217,-5.504 -2.371,-3.502 -3.541,-7.668 -3.514,-12.497 h 33.25 c 0,-4.883 -0.453,-8.795 -1.359,-11.74 -0.906,-2.943 -2.279,-5.281 -4.119,-7.012 -1.063,-1.166 -2.678,-2.332 -4.844,-3.498 -2.168,-1.166 -4.984,-1.791 -8.449,-1.875 -5.988,0.027 -10.732,2.037 -14.23,6.029 -3.5,3.992 -5.291,9.783 -5.373,17.375 -0.057,6.094 1.434,11.383 4.471,15.868 3.034,4.484 8.022,6.851 14.964,7.103 z M 174.678,56.771 c 2.482,-3 5.871,-4.568 10.168,-4.709 4.451,0.084 7.832,1.578 10.141,4.48 2.309,2.902 3.479,6.617 3.508,11.145 H 170.87 c 0.054,-4.278 1.323,-7.916 3.808,-10.916 z"
         id="path4490"
         inkscape:connector-curvature="0"
         style="fill:url(#XMLID_72_)" /><linearGradient
         id="XMLID_73_"
         gradientUnits="userSpaceOnUse"
         x1="463.5264"
         y1="71.597702"
         x2="463.5264"
         y2="132.2979"><stop
           offset="0"
           style="stop-color:#458CFF"
           id="stop4493" /><stop
           offset="1"
           style="stop-color:#FFFFFF"
           id="stop4495" /></linearGradient><path
         d="m 481.355,59.946 c -0.906,-2.943 -2.279,-5.281 -4.119,-7.012 -1.063,-1.166 -2.678,-2.332 -4.844,-3.498 -2.168,-1.166 -4.984,-1.791 -8.449,-1.875 -5.988,0.027 -10.732,2.037 -14.23,6.029 -3.5,3.992 -5.291,9.783 -5.373,17.375 -0.057,6.094 1.434,11.383 4.471,15.868 3.035,4.484 8.023,6.852 14.965,7.104 6.076,-0.281 10.648,-1.998 13.715,-5.154 3.067,-3.156 4.6,-6.301 4.6,-9.43 h -5.125 c -0.029,2.446 -1.174,4.745 -3.436,6.897 -2.262,2.152 -5.373,3.299 -9.334,3.438 -5.107,-0.168 -8.846,-2.002 -11.217,-5.504 -2.371,-3.502 -3.541,-7.668 -3.514,-12.497 h 33.25 c 0,-4.883 -0.453,-8.795 -1.36,-11.741 z m -31.64,7.741 c 0.055,-4.277 1.324,-7.916 3.809,-10.916 2.482,-3 5.871,-4.568 10.168,-4.709 4.451,0.084 7.832,1.578 10.141,4.48 2.309,2.902 3.479,6.617 3.508,11.145 z"
         id="path4497"
         inkscape:connector-curvature="0"
         style="fill:url(#XMLID_73_)" /><linearGradient
         id="XMLID_74_"
         gradientUnits="userSpaceOnUse"
         x1="414.71091"
         y1="71.599602"
         x2="414.71091"
         y2="132.29671"><stop
           offset="0"
           style="stop-color:#458CFF"
           id="stop4500" /><stop
           offset="1"
           style="stop-color:#FFFFFF"
           id="stop4502" /></linearGradient><path
         d="m 429.711,56.374 c -1.004,-2.145 -2.74,-4.121 -5.209,-5.93 -2.469,-1.809 -5.654,-2.77 -9.557,-2.883 -6.898,0.141 -12.004,2.381 -15.313,6.721 -3.309,4.34 -4.949,9.846 -4.922,16.516 0.055,7.127 1.773,12.737 5.152,16.831 3.379,4.094 8.07,6.195 14.074,6.309 4.238,-0.113 7.621,-1.014 10.145,-2.701 2.523,-1.689 4.4,-3.666 5.629,-5.93 v 7.506 h 5 v -61.25 h -5 v 24.811 z m -3.775,28.665 c -2.711,3.043 -6.375,4.551 -10.99,4.523 -5.527,-0.223 -9.428,-2.24 -11.701,-6.053 -2.273,-3.811 -3.369,-8.02 -3.283,-12.627 -0.057,-5.34 1.107,-9.777 3.492,-13.311 2.385,-3.534 6.342,-5.369 11.869,-5.51 4.754,0.057 8.395,1.727 10.926,5.008 2.531,3.283 3.811,7.916 3.838,13.896 -0.058,6.341 -1.441,11.031 -4.151,14.074 z"
         id="path4504"
         inkscape:connector-curvature="0"
         style="fill:url(#XMLID_74_)" /><linearGradient
         id="XMLID_75_"
         gradientUnits="userSpaceOnUse"
         x1="367.18161"
         y1="71.597702"
         x2="367.18161"
         y2="132.2979"><stop
           offset="0"
           style="stop-color:#458CFF"
           id="stop4507" /><stop
           offset="1"
           style="stop-color:#FFFFFF"
           id="stop4509" /></linearGradient><path
         d="m 367.164,47.562 c -7.473,0.223 -12.756,2.609 -15.848,7.16 -3.092,4.551 -4.596,9.881 -4.512,15.992 -0.111,6.094 1.371,11.424 4.449,15.993 3.078,4.57 8.381,6.979 15.91,7.23 7.803,-0.309 13.188,-2.807 16.152,-7.502 2.964,-4.695 4.377,-9.936 4.238,-15.721 0.082,-6.363 -1.455,-11.764 -4.615,-16.201 -3.16,-4.437 -8.418,-6.756 -15.774,-6.951 z m 11.596,36.576 c -2.391,3.504 -6.256,5.313 -11.596,5.424 -5.289,-0.111 -9.135,-1.926 -11.541,-5.445 -2.406,-3.518 -3.596,-8.014 -3.568,-13.487 -0.027,-5.367 1.203,-9.777 3.693,-13.227 2.49,-3.45 6.379,-5.23 11.668,-5.342 5.367,0.168 9.205,2.039 11.512,5.613 2.307,3.574 3.432,7.949 3.377,13.123 0.027,5.391 -1.155,9.837 -3.545,13.341 z"
         id="path4511"
         inkscape:connector-curvature="0"
         style="fill:url(#XMLID_75_)" /><g
         id="g4513"><linearGradient
           id="XMLID_76_"
           gradientUnits="userSpaceOnUse"
           x1="312.76761"
           y1="71.599602"
           x2="312.76761"
           y2="132.2988"><stop
             offset="0"
             style="stop-color:#458CFF"
             id="stop4516" /><stop
             offset="1"
             style="stop-color:#FFFFFF"
             id="stop4518" /></linearGradient><path
           d="m 313.043,29.893 c -7.198,0.132 -13.027,1.608 -17.498,4.417 h 34.445 c -4.215,-2.792 -9.847,-4.28 -16.947,-4.417 z"
           id="path4520"
           inkscape:connector-curvature="0"
           style="fill:url(#XMLID_76_)" /><linearGradient
           id="XMLID_77_"
           gradientUnits="userSpaceOnUse"
           x1="312.54199"
           y1="71.599602"
           x2="312.54199"
           y2="132.29849"><stop
             offset="0"
             style="stop-color:#458CFF"
             id="stop4523" /><stop
             offset="1"
             style="stop-color:#FFFFFF"
             id="stop4525" /></linearGradient><path
           d="m 313.043,41.018 c 2.342,0.06 4.392,0.409 6.167,1.032 h 17.711 c -1.063,-2.07 -2.484,-3.979 -4.31,-5.706 -0.344,-0.325 -0.725,-0.616 -1.095,-0.917 H 293.93 c -1.46,1.111 -2.755,2.385 -3.874,3.831 -0.688,0.889 -1.308,1.827 -1.893,2.792 h 18.388 c 1.883,-0.624 4.046,-0.969 6.492,-1.032 z"
           id="path4527"
           inkscape:connector-curvature="0"
           style="fill:url(#XMLID_77_)" /><linearGradient
           id="XMLID_78_"
           gradientUnits="userSpaceOnUse"
           x1="294.41891"
           y1="71.599602"
           x2="294.41891"
           y2="132.29849"><stop
             offset="0"
             style="stop-color:#458CFF"
             id="stop4530" /><stop
             offset="1"
             style="stop-color:#FFFFFF"
             id="stop4532" /></linearGradient><path
           d="m 299.527,47.436 c 1.113,-1.815 2.637,-3.224 4.523,-4.27 h -16.517 c -1.128,2.052 -2.058,4.249 -2.746,6.623 h 13.511 c 0.372,-0.814 0.771,-1.606 1.229,-2.353 z"
           id="path4534"
           inkscape:connector-curvature="0"
           style="fill:url(#XMLID_78_)" /><linearGradient
           id="XMLID_79_"
           gradientUnits="userSpaceOnUse"
           x1="330.3447"
           y1="71.599602"
           x2="330.3447"
           y2="132.29849"><stop
             offset="0"
             style="stop-color:#458CFF"
             id="stop4537" /><stop
             offset="1"
             style="stop-color:#FFFFFF"
             id="stop4539" /></linearGradient><path
           d="m 323.268,44.354 c 1.841,1.619 2.979,3.432 3.426,5.436 h 12.385 c -0.186,-2.364 -0.716,-4.574 -1.607,-6.623 h -15.859 c 0.591,0.354 1.151,0.743 1.655,1.187 z"
           id="path4541"
           inkscape:connector-curvature="0"
           style="fill:url(#XMLID_79_)" /><linearGradient
           id="XMLID_80_"
           gradientUnits="userSpaceOnUse"
           x1="290.60251"
           y1="71.599602"
           x2="290.60251"
           y2="132.29849"><stop
             offset="0"
             style="stop-color:#458CFF"
             id="stop4544" /><stop
             offset="1"
             style="stop-color:#FFFFFF"
             id="stop4546" /></linearGradient><path
           d="M 297.813,50.905 H 284.51 c -0.535,2.088 -0.907,4.297 -1.117,6.623 h 12.797 c 0.296,-2.396 0.831,-4.609 1.623,-6.623 z"
           id="path4548"
           inkscape:connector-curvature="0"
           style="fill:url(#XMLID_80_)" /><linearGradient
           id="XMLID_81_"
           gradientUnits="userSpaceOnUse"
           x1="289.6113"
           y1="71.599602"
           x2="289.6113"
           y2="132.29849"><stop
             offset="0"
             style="stop-color:#458CFF"
             id="stop4551" /><stop
             offset="1"
             style="stop-color:#FFFFFF"
             id="stop4553" /></linearGradient><path
           d="m 295.914,62.828 c -0.026,-1.452 0.026,-2.843 0.146,-4.183 h -12.77 c -0.087,1.306 -0.139,2.637 -0.127,4.015 -0.006,0.89 0.031,1.751 0.07,2.608 h 12.757 c -0.05,-0.792 -0.08,-1.603 -0.076,-2.44 z"
           id="path4555"
           inkscape:connector-curvature="0"
           style="fill:url(#XMLID_81_)" /><linearGradient
           id="XMLID_82_"
           gradientUnits="userSpaceOnUse"
           x1="290.44531"
           y1="71.599602"
           x2="290.44531"
           y2="132.29849"><stop
             offset="0"
             style="stop-color:#458CFF"
             id="stop4558" /><stop
             offset="1"
             style="stop-color:#FFFFFF"
             id="stop4560" /></linearGradient><path
           d="m 296.09,66.386 h -12.798 c 0.164,2.328 0.509,4.531 1.017,6.623 h 13.29 c -0.771,-1.994 -1.27,-4.205 -1.509,-6.623 z"
           id="path4562"
           inkscape:connector-curvature="0"
           style="fill:url(#XMLID_82_)" /><linearGradient
           id="XMLID_83_"
           gradientUnits="userSpaceOnUse"
           x1="294.03711"
           y1="71.599602"
           x2="294.03711"
           y2="132.29849"><stop
             offset="0"
             style="stop-color:#458CFF"
             id="stop4565" /><stop
             offset="1"
             style="stop-color:#FFFFFF"
             id="stop4567" /></linearGradient><path
           d="m 299.986,77.445 c -0.744,-1.022 -1.377,-2.134 -1.917,-3.319 h -13.467 c 0.655,2.361 1.525,4.574 2.636,6.624 h 16.233 c -1.346,-0.877 -2.514,-1.97 -3.485,-3.305 z"
           id="path4569"
           inkscape:connector-curvature="0"
           style="fill:url(#XMLID_83_)" /><linearGradient
           id="XMLID_84_"
           gradientUnits="userSpaceOnUse"
           x1="330.3418"
           y1="71.599602"
           x2="330.3418"
           y2="132.29849"><stop
             offset="0"
             style="stop-color:#458CFF"
             id="stop4572" /><stop
             offset="1"
             style="stop-color:#FFFFFF"
             id="stop4574" /></linearGradient><path
           d="m 323.15,79.545 c -0.498,0.445 -1.038,0.839 -1.598,1.205 h 15.771 c 0.94,-2.025 1.542,-4.233 1.808,-6.624 h -12.31 c -0.55,1.909 -1.768,3.717 -3.671,5.419 z"
           id="path4576"
           inkscape:connector-curvature="0"
           style="fill:url(#XMLID_84_)" /><linearGradient
           id="XMLID_85_"
           gradientUnits="userSpaceOnUse"
           x1="312.3154"
           y1="71.599602"
           x2="312.3154"
           y2="132.29849"><stop
             offset="0"
             style="stop-color:#458CFF"
             id="stop4579" /><stop
             offset="1"
             style="stop-color:#FFFFFF"
             id="stop4581" /></linearGradient><path
           d="m 331.658,87.972 c 2.159,-1.781 3.833,-3.826 5.077,-6.105 h -17.263 c -1.959,0.846 -4.209,1.32 -6.766,1.4 -2.716,-0.053 -5.084,-0.529 -7.129,-1.4 h -17.682 c 0.683,1.137 1.413,2.24 2.244,3.275 1,1.246 2.135,2.355 3.39,3.348 h 37.438 c 0.229,-0.176 0.47,-0.334 0.691,-0.518 z"
           id="path4583"
           inkscape:connector-curvature="0"
           style="fill:url(#XMLID_85_)" /><linearGradient
           id="XMLID_86_"
           gradientUnits="userSpaceOnUse"
           x1="312.24509"
           y1="71.599602"
           x2="312.24509"
           y2="132.29871"><stop
             offset="0"
             style="stop-color:#458CFF"
             id="stop4586" /><stop
             offset="1"
             style="stop-color:#FFFFFF"
             id="stop4588" /></linearGradient><path
           d="m 329.415,89.607 h -34.339 c 4.486,2.947 10.359,4.504 17.631,4.66 6.593,-0.119 12.156,-1.68 16.708,-4.66 z"
           id="path4590"
           inkscape:connector-curvature="0"
           style="fill:url(#XMLID_86_)" /></g></g></g></svg>