<?xml version="1.0" encoding="utf-8"?>
<!-- Generator: Adobe Illustrator 13.0.3, SVG Export Plug-In . SVG Version: 6.00 Build 14948)  -->
<!DOCTYPE svg PUBLIC "-//W3C//DTD SVG 1.1//EN" "http://www.w3.org/Graphics/SVG/1.1/DTD/svg11.dtd">
<svg version="1.1" xmlns="http://www.w3.org/2000/svg" xmlns:xlink="http://www.w3.org/1999/xlink" x="0px" y="0px"
	 width="499.984px" height="194.709px" viewBox="0 0 499.984 194.709" enable-background="new 0 0 499.984 194.709"
	 xml:space="preserve">
<g id="pixivLogo">
</g>
<g id="レイヤー_1">
	<g>
		<defs>
			<path id="SVGID_1_" d="M0.652,68.438c0,0,191.668,39.916,253.128,39.916c61.462,0,246.203-32.992,246.203-32.992l-1.364,118.355
				L0,194.709L0.652,68.438z"/>
		</defs>
		<clipPath id="SVGID_2_">
			<use xlink:href="#SVGID_1_"  overflow="visible"/>
		</clipPath>
	</g>
	<g>
		<path fill="#0096DB" d="M144.266,56.523c-11.156-9.743-26.78-15.365-44.937-15.365c-47.325,0-79.516,36.5-79.516,36.5
			l9.071,14.389c0,0,5.018,0.42,2.361-8.055c2.294-4.33,6.785-10.162,15.553-16.893c0,0,0,90.905,0,95.837
			c-3.78,1.066-8.776,3.07-5.37,6.475c5.815,0,21.735,0,26.057,0c3.439-3.439-1.979-5.509-5.28-6.475c0-3.699,0-22.608,0-22.608
			s17.866,7.009,37.124,7.009c16.922,0,32.318-5.031,43.77-14.119c11.451-9.036,18.831-22.528,18.786-37.95
			C161.918,80.126,155.433,66.23,144.266,56.523z M130.457,125.652c-7.918,7.814-19.434,12.756-32.718,12.746
			c-14.82,0.008-27.296-2.86-35.533-6.914c0,0,0-2.48,0-20.595c0-19.595,0-51.307,0-51.307c9.038-6.418,23.696-10.372,35.533-10.348
			c14.381,0.011,25.675,5.441,33.31,13.684c7.623,8.291,11.785,19.305,11.822,32.106
			C142.825,107.499,138.376,117.773,130.457,125.652z"/>
		<path fill="#0096DB" d="M184.933,41.158h-5.306c-2.358,0-4.266,1.91-4.266,4.266v98.014c0,2.355,1.908,4.267,4.266,4.267h5.306
			c2.354,0,4.267-1.911,4.267-4.267V45.424C189.2,43.068,187.287,41.158,184.933,41.158z"/>
		<path fill="#0096DB" d="M323.624,41.158h-5.307c-2.357,0-4.266,1.91-4.266,4.266v98.014c0,2.355,1.908,4.267,4.266,4.267h5.307
			c2.354,0,4.267-1.911,4.267-4.267V45.424C327.89,43.068,325.977,41.158,323.624,41.158z"/>
		<path fill="#0096DB" d="M448.391,41.158c-3.634,0-0.891,0-4.937,0c-3.881,0-4.951,0.501-6.698,4.002
			c-1.74,3.484-40.17,79.638-40.17,79.638s-38.433-76.153-40.169-79.638c-1.748-3.501-2.818-4.002-6.699-4.002
			c-4.041,0-1.302,0-4.936,0s-5.595,1.614-3.548,5.725c2.051,4.113,49.379,97.019,49.379,97.019
			c1.242,2.353,3.518,3.803,5.977,3.803c2.451,0,4.727-1.45,5.973-3.803v-0.003c0.082-0.167,47.328-92.906,49.372-97.016
			C453.982,42.772,452.025,41.158,448.391,41.158z"/>
		<path fill="#0096DB" d="M281.714,144.142c2.006,2.554,3.446,3.563,7.323,3.563c3.881,0,2.949,0,7.956,0s3.248-2.275,1.83-4.143
			c-3.536-4.663-38.418-49.005-38.418-49.005s36.135-44.594,39.675-49.258c1.415-1.865,3.178-4.141-1.833-4.141
			c-5.008,0-4.075,0-7.952,0c-3.881,0-5.322,1.006-7.324,3.563c-2.002,2.552-31.367,38.655-31.367,38.655
			s-29.386-36.104-31.389-38.655c-2.002-2.557-3.443-3.563-7.32-3.563c-3.881,0-2.945,0-7.956,0c-5.007,0-3.245,2.275-1.83,4.141
			c3.537,4.664,39.696,49.258,39.696,49.258s-35.931,44.342-39.471,49.005c-1.415,1.867-3.177,4.143,1.83,4.143
			c5.011,0,4.079,0,7.956,0c3.881,0,5.318-1.009,7.324-3.563c2.002-2.555,31.16-38.409,31.16-38.409
			S279.715,141.587,281.714,144.142z"/>
		<path fill="#0096DB" d="M182.265,0c-3.166,0-5.801,1.056-7.911,3.164c-2.107,2.107-3.162,4.744-3.162,7.908
			c0,3.162,1.055,5.799,3.162,7.906c2.11,2.109,4.745,3.165,7.911,3.165c3.162,0,5.797-1.056,7.904-3.165
			c2.11-2.107,3.166-4.744,3.166-7.906c0-3.164-1.056-5.801-3.166-7.908C188.062,1.056,185.427,0,182.265,0z"/>
		<path fill="#0096DB" d="M320.956,0c-3.162,0-5.797,1.056-7.904,3.164c-2.11,2.107-3.165,4.744-3.165,7.908
			c0,3.162,1.055,5.799,3.165,7.906c2.107,2.109,4.742,3.165,7.904,3.165c3.166,0,5.801-1.056,7.911-3.165
			c2.106-2.107,3.162-4.744,3.162-7.906c0-3.164-1.056-5.801-3.162-7.908C326.756,1.056,324.122,0,320.956,0z"/>
	</g>
</g>
</svg>
