<?xml version="1.0" encoding="UTF-8"?>
<svg width="128px" height="32px" viewBox="0 0 128 32" version="1.1" xmlns="http://www.w3.org/2000/svg" xmlns:xlink="http://www.w3.org/1999/xlink">
    <!-- Generator: sketchtool 51 (57462) - http://www.bohemiancoding.com/sketch -->
    <title>B7E20700-3769-4424-96DA-8C5B43D28BB0</title>
    <desc>Created with sketchtool.</desc>
    <defs></defs>
    <g id="Symbols" stroke="none" stroke-width="1" fill="none" fill-rule="evenodd">
        <g id="logo/Quipper/primary" fill="#00BEFF">
            <path d="M51.628225,0 C53.7032463,0 55.3851841,1.6819378 55.3851841,3.75726959 C55.3851841,5.83198039 53.7032463,7.51422868 51.628225,7.51422868 C49.5528932,7.51422868 47.8709554,5.83198039 47.8709554,3.75726959 C47.8709554,1.6819378 49.5528932,0 51.628225,0 Z M36.7527784,9.15269754 L44.5858828,9.15269754 L44.5858828,21.6115191 C44.5858828,21.9425041 44.7861505,22.1402878 45.1059577,22.1402878 L46.1659791,22.1402878 L46.1659791,25.273778 L40.2237739,25.273778 L39.2019431,23.2428466 C38.2822644,24.486369 37.1058083,25.725234 34.6237314,25.725234 C29.7552092,25.725234 28.1431322,23.2099344 28.1431322,17.8579754 L28.1431322,12.6472905 C28.1431322,12.3603954 27.9878859,12.150813 27.634856,12.150813 L26.7890744,12.150813 L26.7890744,9.15269754 L34.5911297,9.15269754 L34.5911297,17.7508555 C34.5911297,20.1627611 35.2543416,20.9855662 36.5764186,20.9855662 C37.7044378,20.9855662 38.3633029,19.9860909 38.3633029,18.534849 L38.3633029,12.7134254 C38.3633029,12.3603954 38.1794913,12.150813 37.8264614,12.150813 L36.7527784,12.150813 L36.7527784,9.15269754 Z M47.4744876,9.15269754 L54.9545621,9.15269754 L54.9545621,21.633564 C54.9545621,21.964549 55.187742,22.1378038 55.4743265,22.1378038 L56.5017462,22.1378038 L56.5017462,25.273778 L47.4744876,25.273778 L47.4744876,22.1378038 L48.3159222,22.1378038 C48.6357295,22.1378038 48.8282348,21.9536818 48.8282348,21.6447418 L48.8282348,12.5811556 C48.8282348,12.2722156 48.6465967,12.086541 48.3267895,12.086541 L47.4744876,12.086541 L47.4744876,9.15269754 Z M67.4909447,21.4368671 C66.2660518,21.4368671 65.1693923,19.7598971 65.1693923,17.5681307 C65.0405379,15.0208503 66.2017798,13.4410645 67.4589639,13.4410645 C68.8776041,13.4410645 69.7802058,15.4723064 69.7802058,17.4066746 C69.7802058,19.8573918 68.8446919,21.4368671 67.4909447,21.4368671 M69.1027112,8.89483353 C67.1686535,8.89483353 65.8152167,9.82972641 65.2023045,10.2811825 L64.6365872,9.15285278 L57.2707739,9.15285278 L57.2707739,12.182949 L58.0994784,12.182949 C58.4301529,12.182949 58.6245212,12.4046406 58.6245212,12.7132701 L58.6245212,28.2736011 C58.6245212,28.5825412 58.4084184,28.7818773 58.1215234,28.7818773 L57.2707739,28.7818773 L57.2707739,31.8510956 L66.9112552,31.8510956 L66.9112552,28.7818773 L65.6658698,28.7818773 C65.3792853,28.7818773 65.1693923,28.6266311 65.1693923,28.2736011 L65.1693923,24.3704001 C65.3951204,24.5641474 66.6845957,25.6285156 69.3610409,25.6285156 C73.5203983,25.6285156 76.712261,22.4683231 76.712261,17.3424026 C76.712261,12.7638804 74.1329999,8.89483353 69.1027112,8.89483353 M87.4916287,21.4368671 C86.2667358,21.4368671 85.1700764,19.7598971 85.1700764,17.5681307 C85.041222,15.0208503 86.2021534,13.4410645 87.4593375,13.4410645 C88.8782882,13.4410645 89.7805793,15.4723064 89.7805793,17.4066746 C89.7805793,19.8573918 88.845376,21.4368671 87.4916287,21.4368671 M89.1030847,8.89483353 C87.169027,8.89483353 85.8155903,9.82972641 85.2029886,10.2811825 L84.6372713,9.15285278 L77.2711475,9.15285278 L77.2711475,12.182949 L78.099852,12.182949 C78.4308369,12.182949 78.6252052,12.4046406 78.6252052,12.7132701 L78.6252052,28.2736011 C78.6252052,28.5825412 78.408792,28.7818773 78.1218969,28.7818773 L77.2711475,28.7818773 L77.2711475,31.8510956 L86.9116287,31.8510956 L86.9116287,28.7818773 L85.6665539,28.7818773 C85.3796588,28.7818773 85.1700764,28.6266311 85.1700764,28.2736011 L85.1700764,24.3704001 C85.3958044,24.5641474 86.6852797,25.6285156 89.3614145,25.6285156 C93.5207718,25.6285156 96.7126346,22.4683231 96.7126346,17.3424026 C96.7126346,12.7638804 94.1333735,8.89483353 89.1030847,8.89483353 M106.395281,13.0543151 C108.458503,13.0543151 108.748814,14.6875056 108.781726,15.9127089 L103.912893,15.9127089 C103.977476,15.1066704 104.428311,13.0543151 106.395281,13.0543151 M107.74406,21.6481261 C109.300248,21.6481261 110.491608,21.2950962 112.25831,19.9214774 L114.550676,22.6187257 C112.068289,24.9766056 110.00103,25.8540574 106.648022,25.8540574 C102.65012,25.8540574 98.1361805,23.306777 98.1361805,17.1164883 C98.1361805,11.8291117 101.940955,8.70121041 106.808857,8.70121041 C110.645923,8.70121041 113.580077,10.6681803 114.51528,13.3766063 C114.902154,14.5052465 115.256426,16.9876339 114.578931,18.8257494 L104.050131,18.8257494 C104.243257,19.6957494 105.035945,21.6481261 107.74406,21.6481261 Z M128,13.6624146 C125.006852,13.6624146 123.453459,14.8913439 123.453459,17.7289347 L123.453459,21.6116433 C123.453459,21.9938595 123.639444,22.2049944 124.02166,22.2049944 L125.066156,22.2049944 L125.066156,25.2735917 L115.942024,25.2735917 L115.942024,22.2049944 L116.756757,22.2049944 C117.109787,22.2049944 117.360354,21.9938595 117.360354,21.5821465 L117.360354,12.6986459 C117.360354,12.4046096 117.109787,12.1692562 116.756757,12.1692562 L115.973694,12.1692562 L115.973694,9.15282173 L122.03575,9.15282173 L123.002002,11.2163548 C123.840332,9.66886025 124.679593,8.34678324 128,8.34678324 L128,13.6624146 Z M12.3970335,20.5540438 C9.33961401,20.5540438 8.02436784,17.178059 8.02436784,13.0131127 C8.02436784,8.84909798 9.39519217,5.47311317 12.3970335,5.47311317 C15.3988749,5.47311317 16.7703202,8.84909798 16.7703202,13.0131127 C16.7703202,17.178059 15.4541426,20.5540438 12.3970335,20.5540438 Z M24.4879215,23.1109494 C24.4879215,24.2582191 24.1932641,24.7953711 23.4875147,24.7953711 C22.5737353,24.7953711 21.9580287,23.5813455 21.7512407,22.4182407 C23.76199,20.2252322 24.7850628,17.1178234 24.7850628,13.2795153 C24.7850628,5.49298469 20.9107375,0.301860796 12.2827723,0.301860796 C4.93496759,0.301860796 0,5.56626092 0,13.023359 C0,21.6507032 5.11784767,25.9646858 12.5022905,25.9646858 C13.4893461,25.9646858 14.4764017,25.8917201 15.353543,25.7451677 C16.1046243,27.5454031 18.0458234,29.8033045 21.2814656,29.8033045 C24.9375146,29.8033045 27.1053731,27.7289042 27.1053731,23.3463027 L27.1053731,22.1623948 L24.4879215,22.1623948 L24.4879215,23.1109494 Z" id="Fill-17"></path>
        </g>
    </g>
</svg>